<?xml version="1.0" standalone="no"?>
<!DOCTYPE svg PUBLIC "-//W3C//DTD SVG 20010904//EN"
 "http://www.w3.org/TR/2001/REC-SVG-20010904/DTD/svg10.dtd">
<svg version="1.0" xmlns="http://www.w3.org/2000/svg"
 width="85.000000pt" height="85.000000pt" viewBox="0 0 85.000000 85.000000"
 preserveAspectRatio="xMidYMid meet">
<metadata>
Created by potrace 1.11, written by Peter Selinger 2001-2013
</metadata>
<g transform="translate(0.000000,85.000000) scale(0.100000,-0.100000)"
fill="#000000" stroke="none">
<path d="M0 425 l0 -425 425 0 425 0 0 425 0 425 -425 0 -425 0 0 -425z m510
235 c0 -5 7 -10 15 -10 20 0 105 -85 105 -105 0 -8 5 -15 10 -15 6 0 10 -13
10 -30 0 -16 5 -30 10 -30 6 0 10 -29 10 -68 0 -56 -3 -70 -20 -82 -11 -8 -20
-20 -20 -28 0 -18 -49 -66 -58 -57 -4 4 -1 10 6 12 14 5 16 43 2 43 -15 0 -12
29 4 46 17 16 46 19 46 4 0 -5 5 -10 10 -10 6 0 10 9 10 20 0 15 -7 20 -28 20
-16 0 -34 -8 -42 -20 -8 -11 -22 -20 -32 -20 -10 0 -18 -4 -18 -10 0 -5 -7
-10 -16 -10 -9 0 -29 -13 -44 -30 -15 -16 -33 -30 -40 -30 -7 0 -25 14 -40 30
-15 17 -35 30 -44 30 -9 0 -16 5 -16 10 0 6 -8 10 -18 10 -10 0 -24 9 -32 20
-8 12 -26 20 -42 20 -21 0 -28 -5 -28 -20 0 -11 5 -20 10 -20 6 0 10 5 10 10
0 15 29 12 46 -4 16 -17 19 -46 4 -46 -14 0 -12 -38 3 -43 6 -2 9 -8 5 -12 -9
-9 -58 39 -58 57 0 8 -9 20 -20 28 -16 12 -20 26 -20 72 0 32 4 58 10 58 6 0
10 14 10 30 0 17 5 30 10 30 6 0 10 9 10 20 0 11 5 20 10 20 6 0 10 7 10 15 0
20 65 85 85 85 8 0 15 5 15 10 0 6 33 10 80 10 47 0 80 -4 80 -10z m-153 -386
c14 -13 14 -17 2 -25 -12 -8 -12 -10 1 -18 8 -6 11 -13 8 -17 -12 -11 -38 23
-38 50 0 30 5 32 27 10z m173 -10 c0 -27 -26 -61 -38 -50 -3 4 0 11 8 17 13 8
13 10 1 18 -12 8 -12 11 0 25 20 22 29 19 29 -10z"/>
<path d="M350 640 c0 -5 -7 -10 -15 -10 -9 0 -27 -11 -40 -25 -14 -13 -25 -31
-25 -40 0 -8 -4 -15 -10 -15 -5 0 -10 -9 -10 -20 0 -11 -4 -20 -10 -20 -5 0
-10 -13 -10 -30 0 -16 -4 -30 -10 -30 -5 0 -10 -13 -10 -30 0 -27 3 -30 30
-30 17 0 30 -4 30 -10 0 -5 9 -10 20 -10 11 0 20 -4 20 -10 0 -5 9 -10 20 -10
11 0 20 -4 20 -10 0 -5 9 -10 20 -10 11 0 20 -4 20 -10 0 -5 18 -10 40 -10 22
0 40 5 40 10 0 6 9 10 20 10 11 0 20 5 20 10 0 6 9 10 20 10 11 0 20 5 20 10
0 6 9 10 20 10 11 0 20 5 20 10 0 6 14 10 30 10 28 0 30 2 30 40 0 22 -4 40
-10 40 -5 0 -10 14 -10 30 0 17 -4 30 -10 30 -5 0 -10 7 -10 15 0 20 -65 85
-85 85 -8 0 -15 5 -15 10 0 6 -33 10 -80 10 -47 0 -80 -4 -80 -10z m20 -40 c0
-5 16 -10 36 -10 37 0 64 -18 64 -43 0 -9 -6 -18 -12 -21 -10 -5 -10 -7 0 -12
28 -13 5 -84 -28 -84 -18 0 -40 27 -40 50 0 25 22 50 44 50 9 0 16 8 16 20 0
16 -7 20 -36 20 -19 0 -42 6 -50 14 -16 17 -18 26 -4 26 6 0 10 -4 10 -10z
m-40 -25 c0 -15 -42 -65 -55 -65 -13 0 -3 33 18 55 26 28 37 31 37 10z m260
-15 c0 -5 -4 -10 -10 -10 -5 0 -10 -13 -10 -30 0 -16 -4 -30 -10 -30 -5 0 -10
-9 -10 -19 0 -11 -6 -22 -12 -25 -10 -5 -10 -7 0 -12 19 -9 14 -33 -13 -59
-28 -29 -41 -31 -61 -11 -32 33 -7 86 40 86 19 0 26 5 26 20 0 11 5 20 10 20
6 0 10 11 10 25 0 25 17 54 33 55 4 0 7 -4 7 -10z m40 -100 c0 -5 -9 -10 -19
-10 -11 0 -21 -6 -24 -12 -2 -7 -8 -10 -12 -6 -10 10 17 37 38 38 9 0 17 -4
17 -10z m-316 -22 c5 -10 7 -10 12 0 8 16 52 15 70 -2 26 -27 9 -86 -26 -86
-16 0 -60 47 -60 65 0 8 -9 15 -20 15 -11 0 -20 -4 -20 -10 0 -5 -9 -10 -20
-10 -11 0 -20 5 -20 10 0 6 9 10 20 10 11 0 20 5 20 10 0 14 37 12 44 -2z"/>
</g>
</svg>
